<?xml version="1.0" encoding="utf-8"?>
<!-- Generator: Adobe Illustrator 21.1.0, SVG Export Plug-In . SVG Version: 6.00 Build 0)  -->
<svg version="1.1" id="Art" xmlns="http://www.w3.org/2000/svg" xmlns:xlink="http://www.w3.org/1999/xlink" x="0px" y="0px"
	 viewBox="0 0 438 139.9" style="enable-background:new 0 0 438 139.9;" xml:space="preserve">
<style type="text/css">
	.st0{fill:#FFFFFF;}
</style>
<g>
	<g>
		<path d="M153.9,111.4c0,9.8-6.5,14.7-15,14.7c-9,0-15.3-3.6-15.3-14V89.8l-5-1.5l0.5-2.1h15.1l0.5,2.1l-5,1.5v21.4
			c0,7.6,3.2,11.2,9.6,11.2c6.2,0,10.5-3.6,10.5-11.7v-21l-5-1.5l0.5-2.1h12.9l0.5,2.1l-5,1.5V111.4z"/>
		<path d="M188.4,123.5l-0.9,1.9h-12.9v-1.9l3.1-1.1v-16.5c0-4.3-2.7-5.2-5-5.2c-2.7,0-5.3,1.3-6.8,2.7v18.8l4.7,1.3l-0.9,1.9H157
			v-1.9l3.1-1.1V103l-3.2-3.6v-0.7l8-3.1h1l-0.2,5.7h0.3c2.7-4.4,6.8-5.7,9.8-5.7c3.9,0,7.9,2.3,7.9,9.2v17.5L188.4,123.5z"/>
		<path d="M202.8,123.5l-0.9,1.9h-12.9v-1.9l3.1-1.1V103l-3.2-3.6v-0.7l8-3.1h1.1v26.7L202.8,123.5z M195.1,82.7
			c2.3,0,4.2,1.8,4.2,4.2c0,2.3-1.8,4.2-4.2,4.2c-2.3,0-4.2-1.8-4.2-4.2C191,84.5,192.8,82.7,195.1,82.7z"/>
		<path d="M223.1,99.7l-4.4-1.5l0.4-1.9H230l0.4,1.9l-3.1,1.3l-10.2,26h-3.4l-10.7-25.7l-2.9-1.8l0.5-1.7H213l0.5,2l-4.3,1.1
			l4.7,11.8c1.6,4,2.4,8.1,2.4,8.1h0.3c0,0,0.9-4,2.5-8.2L223.1,99.7z"/>
		<path d="M243,121.8c3.3,0,5.6-0.9,8.3-2.7l0.9,1.5c-2.4,3.7-5.8,5.6-11,5.6c-7.2,0-12.9-5-12.9-15c0-10,6.3-15.5,13.8-15.5
			c6,0,10.4,3.8,10.4,10.5c0,1.1-0.1,2.2-0.3,3.5H234C234,117.3,237.4,121.8,243,121.8z M234.2,106.7h12.3c0.1-0.5,0.1-1.3,0.1-1.8
			c0-4.2-1.7-6.4-5.2-6.4C238.2,98.5,235.1,101,234.2,106.7z"/>
		<path d="M268.7,123.5l-0.9,2h-14.2v-1.9l3.1-1.1V103l-3.2-3.6v-0.7l8-3.1h1l-0.2,6.9h0.3c1.7-3.8,4.7-7,8.5-7c3.1,0,5,1.7,5,4.4
			c0,2.7-1.8,4.1-3.9,4.1c-2.4,0-3.8-1.7-3.8-4.1c-2.3,0.9-4.1,2.9-5.8,5.4v17L268.7,123.5z"/>
		<path d="M277.9,116c2.8,6,5.4,7.6,9,7.6c3,0,5-1.1,5-4.2c0-2.5-1.5-4-4.8-5.1l-3.8-1.3c-4-1.4-6.6-3.9-6.6-8.8
			c0-5.8,4.2-8.5,9.8-8.5c1.3,0,4,0.5,5.4,1.2l3.2-1.1l0.5,8.6l-1.4,0.5c-2.9-5-5.2-6.4-8.1-6.4c-2.8,0-4.6,1.6-4.6,4
			c0,2.4,1.2,4,4.5,5.1l3.8,1.3c4.4,1.5,7.2,3.9,7.2,9c0,6-4.5,8.4-10.5,8.4c-2.7,0-5-0.8-6.6-1.5l-3,1.5l-0.6-9.6L277.9,116z"/>
		<path d="M312.5,123.5l-0.9,1.9h-12.9v-1.9l3.1-1.1V103l-3.2-3.6v-0.7l8-3.1h1.1v26.7L312.5,123.5z M304.8,82.7
			c2.3,0,4.2,1.8,4.2,4.2c0,2.3-1.8,4.2-4.2,4.2c-2.3,0-4.2-1.8-4.2-4.2C300.7,84.5,302.5,82.7,304.8,82.7z"/>
		<path d="M311,97.5l8.4-9.2h1.3v8h9.8l-0.5,3.1h-9.3v17.4c0,3.8,1.6,5.3,4.4,5.3c1.9,0,3.4-0.4,5.4-1.4l0.7,1.7
			c-2.2,2.4-4.8,3.8-9.1,3.8c-4.5,0-7.3-2.3-7.3-8.3V99.4H311V97.5z"/>
		<path d="M330.6,99.8l-2.9-1.8l0.5-1.7h12.4l0.5,2l-4.3,1.1l4.8,12.6c1.9,5,2.2,8.5,2.2,8.5h0.3c0,0,1.1-4.3,2.5-8.6l4-12.2
			l-4.4-1.5l0.4-1.9h10.7l0.4,1.9l-3.1,1.3l-9.3,25.4c-4.2,11.5-7.8,15.1-13.3,15.1c-3.5,0-5.4-2-5.4-4.6c0-2.4,1.5-3.9,3.8-3.9
			c2.1,0,3.4,1.5,3.4,3.4c0,1-0.3,1.8-0.7,2.3c2.7,0,6.2-4.9,8-10.7L330.6,99.8z"/>
	</g>
	<g>
		<g>
			<path class="st0" d="M107.5,48.5c-0.8-4.8-2-8.7-3.6-12c-1.4-2.8-3.1-5.1-5.2-6.8c-2.8-2.4-6.3-3.6-9.9-3.6c-1.7,0-3.4,0.2-5,0.7
				l5.3-11.4L78.2,7.7h-7.9c-1.3,0-2.8-1-4.7-2.3C62.4,3.1,57.9,0,50.3,0c-6.4,0-11.5,1.8-15.5,5.5c0,0-26,25.3-26.1,25.5l0,0
				c-1.5,1.5-2.8,3.4-3.9,5.6c-1.6,3.2-2.8,7.1-3.6,12c-1.7,10.1-1.4,20.2,1,29.1c2.6,9.7,7.3,19,14,27.6
				c8.2,10.6,19.4,20.2,33.4,28.5l4.8,2.9l4.8-2.9c13.9-8.4,25.2-18,33.4-28.5c6.7-8.6,11.4-17.9,14-27.6
				C108.9,68.7,109.2,58.6,107.5,48.5z"/>
			<g>
				<path d="M46.6,37.8H32.1l-1.3,21.8c0.8,0.1,1.6,0.4,2.3,0.7L46.6,37.8z"/>
				<path d="M35.3,87.3c0,0-0.1,0-0.1-0.1V89c0.2,0.1,0.5,0.2,0.7,0.3c1.1,0.4,2.4,0.8,4.5,0.8c2.2,0,3.6-0.4,4.8-0.9v-1.8
					c-1.2,0.6-2.5,1.1-4.8,1.1c-2.2,0-3.4-0.4-4.5-0.9C35.7,87.5,35.5,87.4,35.3,87.3z"/>
				<path d="M35.9,94.1c-0.2-0.1-0.4-0.2-0.6-0.3c0,0-0.1,0-0.1-0.1v1.8c0.2,0.1,0.5,0.2,0.7,0.3c1.1,0.4,2.4,0.8,4.5,0.8
					c1.6,0,2.7-0.2,3.7-0.5v-1.7c-0.9,0.3-2,0.6-3.7,0.6C38.3,95,37.1,94.6,35.9,94.1z"/>
				<path d="M35.9,100.6c-0.2-0.1-0.4-0.2-0.6-0.3c0,0-0.1,0-0.1-0.1v1.8c0.2,0.1,0.5,0.2,0.7,0.3c1.1,0.4,2.4,0.8,4.5,0.8
					c0.8,0,1.5-0.1,2.1-0.2v-1.6c-0.6,0.1-1.3,0.2-2.1,0.2C38.3,101.5,37.1,101.1,35.9,100.6z"/>
				<path d="M52.2,7.8C53.4,8,54.6,8.4,55.7,9c1.1,0.5,2.1,1.2,3.1,2c1.5,1.1,3,2.4,4.8,3.3v-2.7c-1.2-0.7-2.4-1.5-3.7-2.3
					c-1.1-0.7-2.3-1.3-3.6-1.8c-1.3-0.5-2.6-0.8-3.9-1c-1.3-0.2-2.7-0.2-4-0.1c-0.1,0-0.2,0-0.2,0v1.1c0.1,0,0.2,0,0.3,0
					C49.8,7.4,51,7.5,52.2,7.8z"/>
				<path d="M105.9,48.8c-0.8-4.7-1.9-8.4-3.5-11.5c-1.3-2.6-2.9-4.7-4.8-6.3c-2.5-2.1-5.6-3.3-8.9-3.3c-4.4,0-8.3,1.6-11.1,4.6
					l-4.8-5.2l0.8-1.7h6.6l-0.8,1.7h2.5L87.1,16l-9.4-6.7h-7.3c-1.8,0-3.5-1.1-5.6-2.6c-3.3-2.3-7.4-5.1-14.5-5.1
					c-6,0-10.7,1.6-14.4,5L19.2,22.9h0c0,0-9.4,9.1-9.4,9.2c-1.4,1.4-2.6,3.2-3.6,5.2c-1.5,3.1-2.7,6.9-3.5,11.5
					c-1.7,9.9-1.4,19.7,1,28.5c2.5,9.5,7.1,18.6,13.7,27.1c8.1,10.4,19.2,19.9,33,28.1l4,2.4l4-2.4c13.8-8.3,24.9-17.7,33-28.1
					c6.6-8.5,11.2-17.6,13.7-27.1C107.3,68.5,107.6,58.7,105.9,48.8z M37.4,8.3c1.2-1.1,4.8-4.4,12.8-4.4c6.4,0,10,2.5,13.2,4.7
					c2.3,1.6,4.3,3,6.9,3H77l7.3,5.2l-3,6.4h-6.5c-0.9-0.1-1.9-0.4-2.6-1c-0.9-0.8-1.5-2-1.6-3.3h-1.1c0,0.8,0,1.6,0.3,2.4
					c0.3,0.8,0.7,1.5,1.2,2.2c0.2,0.3,0.5,0.5,0.8,0.8l-1.6,3.5l4.4,4.8h-3.4l-5.8-5h-1.4l4.3,5h-8.6l-5-5l-3,0
					c0.6-1.3,0.9-2.8,1-4.2c0-0.3,0-0.5,0-0.8l-0.1-0.8l0-0.4l-0.1-0.4l-0.1-0.8c-0.3-1-0.6-2-1.1-3c-0.5-0.9-1.1-1.8-1.9-2.5
					l-0.3-0.3l-0.3-0.3c-0.2-0.2-0.4-0.3-0.6-0.5c-0.4-0.3-0.8-0.6-1.3-0.9c-1.4-0.8-3-1.3-4.6-1.5c-0.5,0-0.9-0.1-1.4-0.1v0.7v0.5
					c1.9,0.1,3.7,0.6,5.2,1.6c0.4,0.2,0.7,0.5,1.1,0.8c0.2,0.1,0.3,0.3,0.5,0.5l0.2,0.2l0.2,0.3c0.6,0.7,1.1,1.4,1.5,2.2
					c0.4,0.8,0.7,1.7,0.8,2.5l0.1,0.7l0,0.3l0,0.3l0,0.7c0,0.2,0,0.4,0,0.7c-0.2,1.8-0.8,3.5-1.9,4.9l-1.4,1.8l6.2,0l2.7,2.7H30.7
					v-9.4h-8.2L37.4,8.3z M25.9,41.6c-0.9,3.5-3.9,6-7.4,6.3c-0.3,0-0.6,0-0.8,0c-4.5,0-8.2-3.5-8.5-7.9c0-0.2,0-0.4,0-0.6
					c0-2.3,1-4.6,2.7-6.2c0.2-0.2,8.3-8.1,8.3-8.1h8.3v8.1L25.9,41.6z M102.7,76.7c-1.5,5.7-3.8,11.2-6.8,16.5l0,0
					c-0.2,0.3-0.3,0.5-0.5,0.8c-0.1,0.2-0.2,0.4-0.4,0.6c-0.2,0.3-0.3,0.5-0.5,0.8c-0.1,0.2-0.3,0.5-0.4,0.7
					c-0.2,0.2-0.3,0.5-0.5,0.7c-0.3,0.4-0.6,0.9-0.8,1.3c-0.1,0.2-0.2,0.3-0.3,0.5c-0.2,0.3-0.4,0.6-0.7,0.9
					c-0.1,0.2-0.3,0.4-0.4,0.5c-0.2,0.3-0.5,0.6-0.7,0.9c-0.1,0.2-0.2,0.3-0.3,0.5c-0.3,0.5-0.7,0.9-1,1.4c0,0,0,0,0,0
					c-0.3,0.4-0.7,0.8-1,1.3c-3.7,4.6-8.1,9.1-13,13.3c-3.7,3.1-7.6,6.1-11.9,9c-2.1,1.4-4.2,2.7-6.4,4l-2.8,1.7h0h0l-2.8-1.7
					c-13.5-8.1-24.4-17.4-32.3-27.6c-0.2-0.3-0.5-0.6-0.7-0.9c-0.2-0.2-0.3-0.4-0.5-0.6c-0.3-0.4-0.5-0.7-0.8-1.1
					c-0.1-0.1-0.2-0.3-0.3-0.4c-0.3-0.4-0.6-0.9-0.9-1.3c0-0.1-0.1-0.1-0.2-0.2c-0.3-0.5-0.6-1-0.9-1.4c0,0,0-0.1-0.1-0.1
					c-4.2-6.5-7.2-13.2-9.1-20.2c-2.2-8.4-2.6-17.9-0.9-27.5c0.5-3.1,1.2-5.8,2.1-8.1c0.3,1.7,0.9,3.3,1.9,4.6
					c-0.3,1.2-0.6,2.5-0.8,4c-0.4,2.3-0.7,4.5-0.8,6.8l15.1,7c0.3-0.4,0.5-0.8,0.8-1.1c0.2-0.3,0.5-0.5,0.7-0.7l-9.1-11.9
					c0.9,0.3,1.9,0.4,2.9,0.4c0.7,0,1.4-0.1,2.1-0.2L26,60.3c0.7-0.3,1.5-0.6,2.3-0.7l-0.9-15.5c0.3-0.6,0.6-1.3,0.8-2l2.2-7.2
					l0.1-0.3h48.2l0.3-0.4c1.7-1.9,4.8-4.2,9.8-4.2c2.7,0,5.3,0.9,7.4,2.7c1.6,1.4,3,3.2,4.2,5.5c1.4,2.9,2.5,6.4,3.3,10.9
					C105.3,58.7,105,68.2,102.7,76.7z"/>
				<circle cx="77.5" cy="16.2" r="1.2"/>
				<path d="M70.5,16.8C70.5,16.8,70.5,16.8,70.5,16.8c0.1-0.2,0.4-1.7,1.9-1.9v-1.2h-3.1v3.1H70.5z"/>
				<path d="M100.5,49.7c-1.3-7.5-4.4-16.5-11.7-16.5c-5.2,0-7.6,3.1-8.5,4.6H53.5L35.2,61.7c0.2,0.2,0.5,0.4,0.7,0.6
					c0.4,0.4,0.7,0.8,1,1.3L50,57.7l-1.1,4.8L37.8,66c0.2,0.8,0.3,1.7,0.3,2.5c-0.4-0.1-0.7-0.2-1.1-0.3c-0.4-0.1-0.7-0.3-1.1-0.4
					c-0.2-0.1-0.3-0.2-0.5-0.2c-0.3-0.2-0.7-0.3-1-0.5c-0.8-0.3-1.6-0.6-2.8-0.8c-0.2,0-0.3,0-0.5-0.1c-0.3,0-0.5-0.1-0.8-0.1
					c-0.2,0-0.5,0-0.8,0c0,0-0.1,0-0.1,0c0,0-0.1,0-0.1,0c-0.3,0-0.5,0-0.8,0c-0.3,0-0.5,0-0.8,0.1c-0.2,0-0.4,0-0.5,0.1
					c-1.1,0.2-1.9,0.4-2.7,0.8c-0.4,0.2-0.8,0.3-1.1,0.5c-0.2,0.1-0.4,0.2-0.5,0.3c-0.3,0.2-0.7,0.3-1,0.4c-0.3,0.1-0.7,0.2-1.1,0.3
					c0-0.9,0.1-1.8,0.3-2.6L7.1,61.2c0,1.7,0.1,3.3,0.2,4.9c0,0,0,0,0,0c0,0.2,0,0.3,0,0.5c0,0.3,0.1,0.7,0.1,1l0,0
					c0,0.3,0,0.5,0.1,0.8c0.1,0,0.1,0,0.2,0c0.2,0,0.4,0,0.5,0c0,0,0.1,0,0.1,0c0.2,0,0.3,0,0.4,0c0,0,0,0,0.1,0
					c0.3,0,0.7,0.1,0.9,0.1v0c1.2,0.2,2,0.6,2.8,1c1.4,0.7,3,1.4,5.9,1.4s4.6-0.8,5.9-1.4c0.4-0.2,0.8-0.4,1.3-0.6
					c0.8-0.3,1.7-0.6,3-0.6c0.1,0,0.3,0,0.4,0c0.1,0,0.2,0,0.2,0c0.1,0,0.2,0,0.2,0c0.1,0,0.3,0,0.4,0c1.2,0.1,2.1,0.3,2.9,0.6
					c0.5,0.2,0.9,0.4,1.4,0.6c1.4,0.7,3,1.4,5.9,1.4c3,0,4.6-0.8,5.9-1.4c0.3-0.2,0.7-0.3,1-0.5l-0.5,2.2l2.1-0.4l-0.5,2.3
					c-1.2,0.3-2.1,0.7-2.9,1.1c-1.3,0.6-2.6,1.2-5.1,1.2c-2.5,0-3.8-0.6-5.1-1.2c-1.4-0.7-2.9-1.4-5.8-1.4c-2.9,0-4.4,0.7-5.8,1.4
					c-1.3,0.6-2.6,1.2-5.1,1.2c-2.5,0-3.8-0.6-5.1-1.2c-0.8-0.4-1.7-0.8-2.9-1.1c0,0,0,0,0,0c-0.1,0-0.1,0-0.2,0
					c-0.1,0-0.2,0-0.3-0.1c-0.1,0-0.2,0-0.3-0.1c-0.1,0-0.1,0-0.2,0l0,0C9.2,73,8.8,73,8.3,72.9c0.1,0.5,0.2,1.1,0.4,1.6
					c0.3,0,0.6,0.1,0.9,0.1c0.1,0,0.2,0,0.3,0.1c0.1,0,0.1,0,0.2,0c0.2,0,0.3,0.1,0.5,0.1c0,0,0,0,0,0c0.2,0,0.3,0.1,0.5,0.1
					c0.6,0.2,1.2,0.5,1.8,0.8c1.4,0.7,2.9,1.4,5.8,1.4s4.4-0.7,5.8-1.4c1.3-0.6,2.6-1.2,5.1-1.2c2.5,0,3.8,0.6,5.1,1.2
					c1.4,0.7,2.9,1.4,5.8,1.4c2.9,0,4.4-0.7,5.8-1.4c0.6-0.3,1.2-0.6,1.9-0.8l-1,4.8c-0.6,0.2-1.2,0.5-1.7,0.7
					c-1.3,0.6-2.5,1.2-5,1.2s-3.6-0.6-5-1.2c-1.4-0.7-3-1.4-5.9-1.4c-3,0-4.6,0.8-5.9,1.4c-1.3,0.6-2.5,1.2-5,1.2
					c-2.5,0-3.6-0.6-5-1.2c-0.3-0.2-0.7-0.3-1.1-0.5c0,0,0,0,0,0c0,0,0,0-0.1,0c0,0-0.1,0-0.1-0.1l0,0c-0.7-0.3-1.5-0.5-2.5-0.7
					c0.3,0.8,0.6,1.7,0.9,2.5l0,0c1.3,3.6,3,7.1,5.1,10.6c0.1,0.2,0.2,0.3,0.3,0.5c0.1,0.2,0.3,0.5,0.4,0.7c0.1,0.2,0.2,0.4,0.3,0.5
					c0.1,0.2,0.3,0.5,0.4,0.7c0.1,0.2,0.2,0.4,0.4,0.6c0.1,0.2,0.3,0.4,0.4,0.7c0.1,0.2,0.3,0.4,0.4,0.6c0.1,0.2,0.3,0.4,0.4,0.6
					c0.2,0.2,0.3,0.5,0.5,0.7c0.1,0.2,0.3,0.4,0.4,0.5c0.2,0.3,0.4,0.5,0.6,0.8c0.1,0.1,0.2,0.3,0.3,0.4c0.3,0.4,0.6,0.8,0.9,1.2
					c7.7,9.9,18.3,18.9,31.4,26.8l1.1,0.7l1.1-0.7c13.2-7.9,23.8-16.9,31.4-26.8c0,0,0,0,0,0c0.5-0.6,0.9-1.2,1.4-1.9
					c0.1-0.1,0.1-0.2,0.2-0.2c0.5-0.6,0.9-1.3,1.3-1.9c0-0.1,0.1-0.1,0.1-0.2c0.9-1.4,1.8-2.7,2.6-4.1c2.1-3.6,3.9-7.4,5.3-11.2l0,0
					c0.3-0.7,0.5-1.5,0.8-2.2c-1,0.2-1.8,0.4-2.5,0.7l0,0c0,0-0.1,0-0.1,0.1c0,0-0.1,0-0.1,0c0,0,0,0,0,0c-0.4,0.2-0.7,0.3-1,0.5
					c-1.3,0.6-2.5,1.2-5,1.2c-2.5,0-3.6-0.6-5-1.2c-1.4-0.7-3-1.4-5.9-1.4c-3,0-4.6,0.8-5.9,1.4c-1.3,0.6-2.5,1.2-5,1.2
					c-2.5,0-3.6-0.6-5-1.2c-0.5-0.2-1-0.5-1.7-0.7l-1.9-8.9l2.1,0.4l0,0h0l-1.3-5.6l6.9-6.9l4.6,3.3L79,55l7.1,7.2l4.5-3.3l8.2,8.3
					l2.1,2.1c0.1-0.7,0.2-1.4,0.2-2.2l0,0c0-0.1,0-0.2,0-0.3c0-0.1,0-0.3,0-0.4l0,0C101.7,60.9,101.4,55.3,100.5,49.7z M87.1,50.8
					l0.1-0.4h2.6l0.8-2.5H91l0.8,2.5h2.6l0.1,0.4l-2.1,1.5l0.8,2.5l-0.4,0.3l-2.1-1.5l-2.1,1.5l-0.4-0.3l0.8-2.5L87.1,50.8z
					 M81.5,50.5l-0.4,0.3L79,49.2l-2.1,1.5l-0.4-0.3l0.8-2.5l-2.1-1.5l0.1-0.4H78l0.8-2.5h0.4l0.8,2.5h2.6l0.1,0.4L80.7,48
					L81.5,50.5z M69.7,54.8l-0.4,0.3l-2.1-1.5l-2.1,1.5l-0.4-0.3l0.8-2.5l-2.1-1.5l0.1-0.4h2.6l0.8-2.5h0.4l0.8,2.5h2.6l0.1,0.4
					l-2.1,1.5L69.7,54.8z M60.1,84.1l-2.6-0.5v0l3.5,16.9l0,0l0,0l0,0l-6.8-2.7l-6.8,2.7l0,0l0,0L51,83.6l-2.6,0.5l0,0h0L51.8,68v0
					l-2,0.4L54.1,46h0.4l4.2,22.4l-2-0.4v0L60.1,84.1z M55.7,102.8l0.5,16h-3.8l0.6-16l0.1-2.6l1.3-0.6l1.3,0.6L55.7,102.8z
					 M51,107.4l-0.1,1c-1.7,0.1-2.6,0.5-3.7,1c-1.6,0.8-3.4,1.6-6.8,1.6c-3.2,0-5-0.8-6.5-1.5c-0.1,0-0.2-0.1-0.3-0.1
					c-0.2-0.1-0.5-0.2-0.7-0.3c0,0-0.1,0-0.1,0c-0.3-0.1-0.6-0.2-0.9-0.3l1-0.8l0,0l0,0l0.3-0.2c0.5,0.2,1,0.4,1.4,0.6
					c0.2,0.1,0.4,0.2,0.6,0.3c1.3,0.6,2.7,1.1,5.2,1.1c2.9,0,4.4-0.7,5.8-1.4c1.3-0.6,2.5-1.2,4.8-1.2L51,107.4z M73.3,108.5
					c0.2-0.1,0.4-0.2,0.6-0.3c0.5-0.2,0.9-0.4,1.4-0.6l1.3,1.1c-0.4,0.1-0.7,0.2-1,0.4c0,0-0.1,0-0.1,0c-0.2,0.1-0.4,0.2-0.6,0.3
					c-0.1,0-0.2,0.1-0.3,0.1c-1.5,0.7-3.3,1.5-6.5,1.5c-3.4,0-5.2-0.9-6.8-1.6c-1.1-0.5-2-0.9-3.7-1l-0.1-1l0-0.3
					c2.3,0,3.5,0.6,4.8,1.2c1.4,0.7,2.9,1.4,5.8,1.4C70.6,109.6,72.1,109.1,73.3,108.5z M46.4,82.6C46.4,82.6,46.4,82.6,46.4,82.6
					L45.5,87l0,0l0,0l2.7-0.5l-3.8,18l7.2-3.6l-0.2,2.4l-0.2,2.1c-2.8,0-4.2,0.7-5.6,1.4c-1.3,0.6-2.6,1.2-5.1,1.2
					c-2.3,0-3.6-0.5-4.8-1.1c-0.1-0.1-0.2-0.1-0.3-0.2c-0.5-0.2-1-0.5-1.6-0.7V83.9l-0.1,0.1l-1.5,1.2v21.4l-1.4,1.2c0,0,0,0,0,0
					l0-7.1v-1.1l0-15.2l2.8-2.1c0,0,0.1,0,0.1,0.1c0.2,0.1,0.4,0.2,0.6,0.3c0.1,0,0.2,0.1,0.3,0.1c0.4,0.2,0.9,0.4,1.4,0.6
					c0,0,0,0,0,0c1.1,0.4,2.5,0.8,4.5,0.8C43.4,84,45,83.2,46.4,82.6z M62.2,82.6c1.4,0.7,3,1.4,5.9,1.4c2,0,3.4-0.3,4.5-0.8
					c0,0,0,0,0,0c0.5-0.2,1-0.4,1.4-0.6c0,0,0.1,0,0.1,0c0.3-0.1,0.5-0.2,0.8-0.4c0,0,0.1,0,0.1-0.1l2.8,2.1l0,23.4c0,0,0,0,0,0
					l-1.4-1.2V85.1l-1.6-1.2v22.2c-0.6,0.2-1.1,0.5-1.6,0.7c-0.1,0.1-0.2,0.1-0.3,0.2c-1.2,0.6-2.4,1.1-4.8,1.1
					c-2.5,0-3.8-0.6-5.1-1.2c-1.4-0.7-2.8-1.4-5.6-1.4l-0.2-2.1l-0.2-2.4l7.2,3.6l-0.5-2.3l-3.4-15.7l2.7,0.5L62.2,82.6
					C62.1,82.6,62.2,82.6,62.2,82.6z"/>
				<path d="M72.6,89.3c0.2-0.1,0.5-0.2,0.7-0.3v-1.8c0,0-0.1,0-0.1,0.1c-0.2,0.1-0.4,0.2-0.6,0.3c-1.1,0.5-2.3,0.9-4.5,0.9
					c-2.4,0-3.6-0.5-4.8-1.1v1.8c1.2,0.5,2.6,0.9,4.8,0.9C70.2,90.1,71.5,89.8,72.6,89.3z"/>
				<path d="M72.6,94.1c-1.1,0.5-2.3,0.9-4.5,0.9c-1.7,0-2.8-0.3-3.7-0.6v1.7c1,0.3,2.1,0.5,3.7,0.5c2.1,0,3.4-0.4,4.5-0.8
					c0.2-0.1,0.5-0.2,0.7-0.3v-1.8c0,0-0.1,0-0.1,0.1C73,93.9,72.8,94,72.6,94.1z"/>
				<path d="M72.6,100.6c-1.1,0.5-2.3,0.9-4.5,0.9c-0.8,0-1.5-0.1-2.1-0.2v1.6c0.6,0.1,1.3,0.2,2.1,0.2c2.1,0,3.4-0.4,4.5-0.8
					c0.2-0.1,0.5-0.2,0.7-0.3v-1.8c0,0-0.1,0-0.1,0.1C73,100.4,72.8,100.5,72.6,100.6z"/>
				<polygon points="15.5,41.6 16.4,42.2 25.7,29.4 25.7,27.8 24.2,27.8 				"/>
				<polygon points="68.5,73.9 68.5,68.4 66.2,68.4 66.2,69.7 66.9,69.7 66.9,73.9 				"/>
				<path d="M72.9,72.4c0,1.1,1.1,1.7,2.1,1.7s2.1-0.6,2.1-1.7c0-0.6-0.3-1.2-0.9-1.4c0.4-0.2,0.7-0.7,0.7-1.2c0-1.1-1-1.6-1.9-1.6
					s-1.9,0.5-1.9,1.6c0,0.5,0.3,1,0.7,1.2C73.3,71.2,72.9,71.7,72.9,72.4z M75,70.3c-0.3,0-0.5-0.2-0.5-0.5c0-0.3,0.2-0.5,0.5-0.5
					c0.3,0,0.5,0.2,0.5,0.5C75.5,70.1,75.3,70.3,75,70.3z M75,72.8c-0.3,0-0.6-0.3-0.6-0.6c0-0.3,0.3-0.6,0.6-0.6s0.6,0.3,0.6,0.6
					C75.6,72.5,75.3,72.8,75,72.8z"/>
				<path d="M83.1,68.4l-1.2,1.5c-0.4,0.5-0.9,1.3-0.9,2.2c0,0.6,0.3,1.1,0.7,1.5c0.4,0.3,1,0.5,1.6,0.5c1.1,0,2.4-0.7,2.4-2.1
					c0-0.9-0.6-2-1.8-2c-0.2,0-0.4,0-0.5,0.1l1.5-1.7H83.1z M83.3,71.2c0.4,0,0.8,0.3,0.8,0.8c0,0.5-0.3,0.8-0.8,0.8
					c-0.4,0-0.8-0.4-0.8-0.8C82.5,71.6,82.9,71.2,83.3,71.2z"/>
				<path d="M89.3,72.4c0,1.1,1.1,1.7,2.1,1.7s2.1-0.6,2.1-1.7c0-0.6-0.3-1.2-0.9-1.4c0.4-0.2,0.7-0.7,0.7-1.2c0-1.1-1-1.6-1.9-1.6
					c-0.9,0-1.9,0.5-1.9,1.6c0,0.5,0.3,1,0.7,1.2C89.6,71.2,89.3,71.7,89.3,72.4z M91.4,70.3c-0.3,0-0.5-0.2-0.5-0.5
					c0-0.3,0.2-0.5,0.5-0.5c0.3,0,0.5,0.2,0.5,0.5C91.9,70.1,91.7,70.3,91.4,70.3z M91.4,72.8c-0.3,0-0.6-0.3-0.6-0.6
					c0-0.3,0.3-0.6,0.6-0.6c0.3,0,0.6,0.3,0.6,0.6C92,72.5,91.7,72.8,91.4,72.8z"/>
			</g>
		</g>
		<g>
			<path class="st0" d="M119.8,52.1c0-12.6,6.8-20.4,18.9-20.4c12,0,18.8,7.8,18.8,20.4c0,12.6-6.8,20.4-18.8,20.4
				C126.6,72.4,119.8,64.6,119.8,52.1z M147.4,52.1c0-12.4-2.7-17.2-8.8-17.2c-6.1,0-8.8,4.8-8.8,17.2c0,12.3,2.7,17.2,8.8,17.2
				C144.7,69.2,147.4,64.4,147.4,52.1z"/>
			<path class="st0" d="M176.4,69.7l-0.9,2.1h-16.3v-1.9l2.7-1.2V50.4l-2.8-4.4v-0.7l10.1-3.4h1.4l-0.2,6.8h0.3
				c1.3-3.4,4-6.8,8.4-6.8c3.6,0,5.7,2.1,5.7,5.4c0,3-2.1,4.9-4.6,4.9c-2.9,0-4.6-1.9-4.6-4.7c-1.7,0.7-3.3,2.3-4.8,4.3v16.7
				L176.4,69.7z"/>
			<path class="st0" d="M201.2,66.8c3,0,4.8-0.7,7.2-2.6l1.3,1.5c-2.1,4.8-6.2,6.8-11.9,6.8c-7.6,0-13.7-4.9-13.7-14.9
				c0-10.1,6.8-15.7,14.9-15.7c6.6,0,11.1,3.8,11.1,10.9c0,1.1-0.1,2.5-0.3,3.8h-17.2C192.8,62.6,195.5,66.8,201.2,66.8z
				 M192.8,53.4h9.4c0.1-0.5,0.2-1.4,0.2-2.5c0-3.1-0.9-6-4-6C195.5,44.9,193.3,47.7,192.8,53.4z"/>
			<path class="st0" d="M231.6,65.9c6.4,0,10.4,3.1,10.4,9.5c0,8.2-8.1,11.2-17,11.2c-8.2,0-14.2-1.9-14.2-7c0-3.8,3-5.6,7.6-6.2
				v-0.2c-3.8-0.5-6-2.7-6-6.2c0-3.5,2.6-5.6,6.3-6.3c-3.8-1.3-6.2-4-6.2-8.4c0-5.9,4.4-10.5,12.9-10.5c3.5,0,7.6,0.7,10.7,2.2
				c-0.3-0.4-0.4-0.9-0.4-1.6c0-2.1,1.6-3.5,3.7-3.5c2.1,0,3.7,1.5,3.7,3.8c0,2.5-1.7,4-4.1,4c-1.7,0-3.4-0.7-5.3-1.4V46
				c2.3,1.1,4,3.4,4,6.4c0,6.4-6.4,9.3-12.3,9.3c-1.5,0-2.8-0.1-4.1-0.5c-1.4,0.5-2.5,1.2-2.5,2.7c0,1.3,0.8,2,2.4,2H231.6z
				 M218.2,78.4c0,3.6,2.6,5.2,7.2,5.2c5.3,0,9.3-1.5,9.3-5.7c0-2.5-1.3-4.1-5.3-4.1H221C219.3,74.8,218.2,76.3,218.2,78.4z
				 M225.1,44.9c-3.4,0-4,2.6-4,7c0,4.3,0.6,6.9,4,6.9c3.5,0,4.1-2.6,4.1-6.9C229.2,47.5,228.6,44.9,225.1,44.9z"/>
			<path class="st0" d="M255.4,72.4c-9,0-15-5.2-15-15.3c0-10.1,6-15.3,15-15.3c9,0,15,5.2,15,15.3
				C270.5,67.3,264.5,72.4,255.4,72.4z M255.4,69.3c4.5,0,5.7-4.4,5.7-12.2c0-7.8-1.2-12.2-5.7-12.2c-4.5,0-5.7,4.4-5.7,12.2
				C249.7,64.9,251,69.3,255.4,69.3z"/>
			<path class="st0" d="M305.6,69.8l-0.9,1.9h-14.7v-1.9l2.7-1.3V54c0-4.4-2.3-5.8-4.8-5.8c-2.3,0-4.1,1.1-5.3,2.3v18.1l4,1.3
				l-0.9,1.9h-14.6v-1.9l2.7-1.2V50.3l-2.8-4.4v-0.7l10.1-3.3h1.4l-0.2,5.8h0.3c2.4-3.8,5.8-5.8,10.3-5.8c4.9,0,8.6,3.4,8.6,10.3
				v16.4L305.6,69.8z"/>
			<path class="st0" d="M332.6,63.8c0-3.6-1.9-5.4-6.3-7.1l-4.8-2c-5-2-7.8-5.4-7.8-11.5c0-8,6.2-11.5,12.7-11.5
				c3.6,0,6.4,0.8,8.5,1.5l3.3-1.5l0.6,11.1l-1.8,0.4l-3.2-4.2c-2-2.8-4.1-4.3-7.6-4.3c-3.1,0-5.3,2-5.3,5.1c0,3.1,1.4,4.9,5.4,6.5
				l5,2c6.3,2.5,9,6.1,9,12.3c0,8-6.1,11.9-13.3,11.9c-4.8,0-7.4-1.2-9.2-2.1l-3.6,2.1l-1.1-12.7l2.1-0.4l3.3,4.8
				c2.2,3.4,4.7,5.2,8.5,5.2C330.5,69.3,332.6,67.3,332.6,63.8z"/>
			<path class="st0" d="M340.9,43.8l10.7-9.2h2v7.9h8.8L362,46h-8.3v15.8c0,3.9,1.5,5.4,4.2,5.4c1.7,0,3.1-0.4,5-1.4l0.7,1.6
				c-2.1,3.1-5.4,5-9.7,5c-5.2,0-8.8-2.6-8.8-9.4V46h-4V43.8z"/>
			<path class="st0" d="M388.8,65.3c0,3,1.1,3.7,4.2,3.4l0.2,1.3c-1.7,1.6-3.9,2.4-7,2.4c-2.9,0-5.3-1.2-5.8-4.3l-0.2-0.1
				c-1.4,3-4.5,4.4-8.1,4.4c-4.5,0-8.2-2.5-8.2-8c0-5.9,4.7-8.8,12.1-8.8c1.4,0,2.9,0.3,4,0.5v-2.5c0-3.9-2.5-5.8-6.4-5.8
				c-2.8,0-5.2,0.5-8,2l-0.8-1.9c2.9-3.9,7.5-6,13-6c5.6,0,11,2.5,11,10.7V65.3z M378.5,58.7c-4,0-6.2,1-6.2,4.6
				c0,2.5,1.5,4.2,3.8,4.2c1.5,0,2.7-0.3,3.9-1.4v-7.3H378.5z"/>
			<path class="st0" d="M390,43.8l10.7-9.2h2v7.9h8.8l-0.5,3.5h-8.3v15.8c0,3.9,1.5,5.4,4.2,5.4c1.7,0,3.1-0.4,5-1.4l0.7,1.6
				c-2.1,3.1-5.4,5-9.7,5c-5.2,0-8.8-2.6-8.8-9.4V46h-4V43.8z"/>
			<path class="st0" d="M429,66.8c3,0,4.8-0.7,7.2-2.6l1.3,1.5c-2.1,4.8-6.2,6.8-11.9,6.8c-7.6,0-13.7-4.9-13.7-14.9
				c0-10.1,6.8-15.7,14.9-15.7c6.6,0,11.1,3.8,11.1,10.9c0,1.1-0.1,2.5-0.3,3.8h-17.2C420.7,62.6,423.3,66.8,429,66.8z M420.7,53.4
				h9.4c0.1-0.5,0.2-1.4,0.2-2.5c0-3.1-0.9-6-4-6C423.3,44.9,421.2,47.7,420.7,53.4z"/>
		</g>
	</g>
</g>
</svg>
